<svg width="204" height="180" viewBox="0 0 204 180" fill="none" xmlns="http://www.w3.org/2000/svg">
<path d="M100.625 155.178C142.123 155.178 175.764 122.446 175.764 82.0696C175.764 41.6931 142.123 8.96143 100.625 8.96143C59.1272 8.96143 25.4863 41.6931 25.4863 82.0696C25.4863 122.446 59.1272 155.178 100.625 155.178Z" fill="#FFEFE0"/>
<g style="mix-blend-mode:multiply" opacity="0.5">
<rect x="82.0996" y="34.1318" width="111.985" height="96.5299" rx="16.3244" fill="#222222"/>
</g>
<g style="mix-blend-mode:multiply" opacity="0.5">
<rect x="80.7676" y="33.2056" width="111.722" height="95.8678" rx="18.351" fill="#222222"/>
</g>
<rect x="81.4883" y="32.1543" width="111.892" height="96.7819" rx="17.2141" fill="white"/>
<rect x="129.297" y="106.528" width="41.9593" height="8.54006" rx="4.27003" fill="white"/>
<g clip-path="url(#clip0_4927_143383)">
<path d="M140.433 82.3726C140.307 82.3711 141.036 95.6533 141.581 98.9366C142.435 104.086 145.274 139.318 145.274 139.318H153.909L154.086 90.3137L155.653 109.181L156.25 139.43L164.688 139.205L165.564 107.119C165.298 104.723 166.017 82.6971 166.017 82.6971L140.433 82.3726Z" fill="#263238"/>
<path d="M144.332 32.7856C143.315 32.3131 142.678 31.2708 142.303 30.213C141.928 29.1553 141.755 28.0315 141.339 26.9894C141.029 26.2125 141.37 24.9741 140.673 24.5123C139.8 23.9344 139.81 22.4013 140.146 21.6356C140.513 20.8023 141.508 20.1828 141.576 19.9188C141.753 19.2258 141.15 18.4752 141.374 17.7954C141.9 16.1982 143.201 16.4085 143.201 16.4085C143.794 15.6903 144.596 14.7413 145.898 14.4047C147.308 14.0397 149.388 13.7689 150.644 14.5083C151.899 15.2474 152.822 15.7411 153.227 17.1408" fill="#263238"/>
<path d="M155.94 36.2284L152.987 41.3022L148.907 45.3754L146.513 42.0859L146.502 38.7716L146.492 35.9924C146.492 35.9924 142.802 35.4831 142.693 31.8041C142.641 30.0274 142.831 26.3608 143.041 23.0439C143.267 19.4766 146.195 16.6811 149.768 16.62L150.123 16.6138C153.956 16.7717 155.962 20.115 155.698 23.9416L155.94 36.2284Z" fill="#CE947A"/>
<path d="M144.133 25.7626C144.128 26.0401 144.359 26.2734 144.649 26.284C144.938 26.2944 145.177 26.0785 145.182 25.801C145.187 25.5234 144.956 25.2898 144.667 25.2792C144.377 25.2686 144.138 25.485 144.133 25.7626Z" fill="#263238"/>
<path d="M143.812 24.6386C143.879 24.7059 144.272 24.4044 144.837 24.3964C145.402 24.3802 145.822 24.664 145.882 24.5937C145.912 24.5624 145.843 24.4399 145.661 24.3114C145.481 24.1835 145.175 24.0613 144.823 24.0687C144.47 24.0767 144.176 24.2113 144.008 24.3471C143.837 24.4833 143.78 24.6085 143.812 24.6386Z" fill="#263238"/>
<path d="M149.442 25.6434C149.437 25.9213 149.668 26.1543 149.958 26.1649C150.248 26.1755 150.487 25.9597 150.492 25.6818C150.497 25.4042 150.266 25.1707 149.977 25.16C149.687 25.1494 149.447 25.3659 149.442 25.6434Z" fill="#263238"/>
<path d="M149.449 24.3809C149.507 24.455 149.931 24.1981 150.494 24.2513C151.057 24.2964 151.444 24.6239 151.511 24.5604C151.544 24.5327 151.49 24.4036 151.321 24.256C151.156 24.1092 150.865 23.9545 150.514 23.9238C150.163 23.8937 149.856 23.9956 149.675 24.1122C149.49 24.2294 149.42 24.3475 149.449 24.3809Z" fill="#263238"/>
<path d="M147.46 29.0693C147.462 29.0371 147.109 28.9822 146.538 28.9193C146.394 28.9069 146.257 28.8806 146.23 28.7823C146.195 28.6786 146.252 28.5219 146.32 28.3527C146.449 28.001 146.585 27.6322 146.728 27.2459C147.294 25.6703 147.701 24.3758 147.638 24.3533C147.574 24.3312 147.063 25.5903 146.497 27.1659C146.361 27.5545 146.231 27.9248 146.107 28.2791C146.055 28.4442 145.964 28.632 146.042 28.8473C146.082 28.9544 146.19 29.0309 146.283 29.0542C146.376 29.0808 146.457 29.0811 146.529 29.0841C147.102 29.105 147.458 29.1015 147.46 29.0693Z" fill="#263238"/>
<path d="M149.112 29.4283C149.02 29.4245 149.029 30.0384 148.511 30.4831C147.994 30.929 147.338 30.8714 147.335 30.9573C147.328 30.996 147.483 31.0739 147.759 31.0769C148.03 31.0816 148.425 30.9877 148.741 30.7158C149.057 30.4429 149.189 30.0841 149.206 29.832C149.224 29.5748 149.154 29.4239 149.112 29.4283Z" fill="#263238"/>
<path d="M149.48 22.5179C149.526 22.675 150.094 22.6398 150.751 22.7641C151.41 22.8749 151.931 23.1046 152.028 22.9729C152.072 22.9097 151.988 22.7591 151.782 22.5961C151.578 22.4337 151.246 22.2698 150.852 22.199C150.457 22.129 150.089 22.1677 149.841 22.2498C149.592 22.331 149.461 22.4435 149.48 22.5179Z" fill="#263238"/>
<path d="M144.046 23.1877C144.147 23.3144 144.535 23.1745 145.003 23.1603C145.471 23.1296 145.87 23.2317 145.959 23.0959C145.998 23.0301 145.933 22.9025 145.757 22.7838C145.585 22.6657 145.297 22.5715 144.976 22.5865C144.654 22.6025 144.377 22.7236 144.216 22.8579C144.053 22.9926 144.001 23.126 144.046 23.1877Z" fill="#263238"/>
<path d="M152.956 16.8785C152.96 17.6938 152.584 18.5026 151.958 19.0258C151.333 19.549 150.471 19.7767 149.669 19.63C149.047 19.5163 148.365 19.2018 147.826 19.5331C147.259 19.8818 147.236 20.7358 146.734 21.1719C146.016 21.7953 144.874 21.2103 143.962 21.4808C143.258 21.6896 142.819 22.3625 142.351 22.9283C141.884 23.4943 141.183 24.0324 140.479 23.8236C140.524 23.1908 140.57 22.5512 140.759 21.9456C140.947 21.34 141.294 20.7618 141.825 20.4154C142.117 20.2255 142.455 20.1101 142.726 19.8916C143.31 19.42 143.445 18.5988 143.806 17.9403C144.271 17.0914 145.17 16.4955 146.133 16.3969C146.934 16.3151 147.759 16.5555 148.54 16.3585C149.118 16.2129 149.622 15.8382 150.207 15.7272C151.346 15.5107 152.405 16.3281 153.231 17.1419" fill="#263238"/>
<path d="M149.305 18.4981C149.815 18.3519 150.86 18.0212 151.134 17.5785C151.729 16.6165 152.778 15.9598 153.849 16.0183C154.921 16.0767 155.949 16.923 156.168 18.0542C157.464 18.064 158.729 18.8784 159.352 20.1035C159.974 21.329 159.928 22.9155 159.236 24.097C159.055 24.4064 158.825 24.7156 158.82 25.0811C158.814 25.5344 159.149 25.8935 159.386 26.2685C160.031 27.2908 159.982 28.6945 159.484 29.8078C158.985 30.921 158.633 31.3119 157.923 31.5352C156.534 31.9713 157.915 34.7662 155.603 34.7662L155.138 26.4849C155.079 26.5168 155.009 26.5446 154.921 26.5647C153.552 26.8741 153.372 24.2018 153.677 23.4376C153.182 22.9982 152.682 22.5523 152.304 21.9939C151.927 21.4356 151.594 19.9131 151.674 19.2274C151.181 19.2561 149.08 18.5621 149.305 18.4981Z" fill="#263238"/>
<path d="M154.951 26.5368C155.013 26.5088 157.467 25.7458 157.429 28.2628C157.392 30.7798 154.872 30.2232 154.869 30.1508C154.866 30.0788 154.951 26.5368 154.951 26.5368Z" fill="#CE947A"/>
<path d="M155.606 29.2096C155.617 29.2017 155.649 29.2409 155.723 29.2761C155.795 29.31 155.919 29.3348 156.05 29.2876C156.318 29.194 156.548 28.775 156.567 28.3217C156.577 28.0929 156.532 27.8738 156.453 27.6922C156.379 27.5067 156.262 27.3765 156.129 27.3505C155.996 27.3177 155.9 27.3966 155.868 27.4669C155.833 27.5368 155.849 27.587 155.835 27.5915C155.828 27.5977 155.782 27.5484 155.804 27.4447C155.815 27.3948 155.845 27.3361 155.905 27.2885C155.966 27.2401 156.055 27.2165 156.148 27.228C156.342 27.2442 156.514 27.4255 156.601 27.6251C156.697 27.8256 156.753 28.0719 156.742 28.3288C156.719 28.8358 156.452 29.3065 156.086 29.4063C155.909 29.45 155.762 29.3942 155.686 29.3337C155.61 29.2705 155.597 29.2141 155.606 29.2096Z" fill="#A56349"/>
<path d="M159.124 30.5534C158.816 30.8844 158.663 31.3539 158.717 31.8028C158.771 32.2516 159.031 32.6718 159.408 32.9204C159.203 33.1064 158.92 33.2033 158.644 33.1817C158.546 33.4989 158.992 33.7156 159.082 34.0348C159.137 34.2265 159.049 34.437 158.906 34.5764C158.764 34.7157 158.575 34.7967 158.388 34.8646C157.831 35.0662 157.241 35.1793 156.649 35.1979C156.304 35.2089 155.916 35.1681 155.692 34.9041C155.507 34.6847 155.49 34.3735 155.481 34.0862C155.46 33.3707 155.439 32.6555 155.418 31.9401C155.412 31.7289 155.41 31.5022 155.53 31.3279C155.666 31.1292 155.92 31.0557 156.154 30.996C157.171 30.7368 158.188 30.4775 159.205 30.2183" fill="#263238"/>
<path d="M166.859 79.6082C166.466 77.3053 164.107 66.1843 164.107 66.1843L165.568 39.6172C164.894 39.1678 155.937 35.9185 155.937 35.9185C155.937 35.9185 154.559 40.0102 150.178 40.9091C145.797 41.8076 146.491 38.5261 146.491 38.5261C146.491 38.5261 137.934 43.0998 137.428 43.4367C136.923 43.7736 134.798 52.3673 134.798 52.3673L133.185 57.9252L139.955 59.5005C139.955 59.5005 140.124 72.7558 139.955 73.7108C139.787 74.6657 139.45 82.3606 139.45 82.3606L166.017 82.6975C166.016 82.6972 167.252 81.9108 166.859 79.6082Z" fill="#455A64"/>
<path d="M165.571 39.6167C165.571 39.6167 167.209 41.2245 167.757 42.8143C168.306 44.4042 170.005 54.82 170.005 54.82C170.005 54.82 160.686 56.1358 160.686 55.9713C160.686 55.8069 161.508 49.996 161.782 48.1868C162.056 46.3775 165.571 39.6167 165.571 39.6167Z" fill="#455A64"/>
<path d="M139.981 63.9141C139.976 63.9144 139.967 63.8639 139.957 63.7674C139.946 63.6528 139.933 63.5131 139.918 63.3442C139.89 62.9763 139.859 62.443 139.84 61.784C139.797 60.4658 139.781 58.6442 139.795 56.6327C139.809 54.6206 139.846 52.7999 139.884 51.4821C139.906 50.841 139.925 50.3139 139.938 49.9218C139.948 49.7523 139.956 49.6123 139.962 49.4977C139.969 49.4009 139.976 49.3501 139.981 49.3501C139.986 49.3501 139.99 49.4012 139.993 49.4983C139.995 49.6132 139.996 49.7532 139.998 49.9229C139.997 50.3151 139.995 50.8425 139.992 51.4838C139.981 52.8232 139.965 54.633 139.949 56.6336C139.935 58.6442 139.933 60.4643 139.949 61.7813C139.954 62.4401 139.969 62.9728 139.977 63.341C139.982 63.5105 139.985 63.6504 139.988 63.7653C139.988 63.8625 139.986 63.9138 139.981 63.9141Z" fill="#263238"/>
<path d="M161.525 46.5835C161.535 46.5844 161.538 46.7078 161.533 46.9305C161.529 47.1856 161.524 47.5004 161.518 47.8727C161.51 48.7036 161.5 49.7859 161.489 50.9827C161.477 52.198 161.455 53.2989 161.414 54.0952C161.395 54.4933 161.372 54.8154 161.35 55.0375C161.327 55.2596 161.31 55.3818 161.299 55.3809C161.288 55.38 161.286 55.2566 161.29 55.034C161.294 54.7791 161.3 54.4641 161.305 54.0917C161.313 53.2608 161.324 52.1783 161.335 50.9812C161.347 49.7661 161.369 48.6656 161.409 47.8692C161.428 47.4711 161.452 47.149 161.474 46.9269C161.496 46.7049 161.514 46.5826 161.525 46.5835Z" fill="#263238"/>
<path d="M165.285 39.8395C165.302 39.8868 164.401 40.1106 163.501 40.775C162.592 41.4287 162.104 42.2177 162.064 42.1873C162.049 42.1779 162.149 41.9694 162.371 41.6697C162.593 41.3703 162.948 40.9882 163.41 40.6507C163.872 40.3146 164.345 40.0932 164.698 39.9739C165.051 39.8537 165.281 39.8218 165.285 39.8395Z" fill="#263238"/>
<path d="M139.483 46.4041C139.443 46.426 139.053 45.7545 138.477 44.9941C137.905 44.2308 137.368 43.6701 137.4 43.6379C137.426 43.6087 138.019 44.1272 138.6 44.9017C139.184 45.6733 139.518 46.3867 139.483 46.4041Z" fill="#263238"/>
<path d="M155.798 63.0661C155.802 63.0694 155.77 63.116 155.705 63.202C155.628 63.3003 155.533 63.4228 155.416 63.5725C155.164 63.8935 154.786 64.3474 154.307 64.8984C153.351 66.0013 151.971 67.4747 150.336 68.9892C148.699 70.5023 147.123 71.7652 145.95 72.6331C145.363 73.0674 144.882 73.4091 144.542 73.6359C144.384 73.7407 144.254 73.8266 144.151 73.8954C144.06 73.9533 144.011 73.9816 144.008 73.9772C144.005 73.9728 144.048 73.9362 144.133 73.87C144.232 73.795 144.356 73.7014 144.507 73.5871C144.836 73.3459 145.307 72.9912 145.884 72.5465C147.038 71.6583 148.599 70.3857 150.231 68.8765C151.861 67.3661 153.251 65.9085 154.226 64.8263C154.714 64.2857 155.104 63.843 155.37 63.5342C155.495 63.3918 155.598 63.2755 155.681 63.1825C155.754 63.1027 155.794 63.0626 155.798 63.0661Z" fill="#263238"/>
<path d="M162.328 55.8493L164.646 66.2658L165.339 82.6204L170.389 82.2451L171.122 65.5772L169.481 54.894L162.328 55.8493Z" fill="#CE947A"/>
<path d="M165.873 88.6427C165.668 88.7513 165.415 88.6176 165.354 88.3928C165.163 87.6791 164.665 85.7477 164.679 85.0154C164.696 84.1094 165.215 80.6147 165.215 80.6147L170.48 80.6499L171.802 85.4556C171.802 85.4556 171.457 87.4293 171.113 87.5433C170.937 87.6018 170.445 87.6726 170.445 87.6726L170.3 88.2789C170.007 89.2031 168.909 88.9497 168.909 88.9497C168.909 88.9497 168.747 89.5749 168.203 89.7497C167.628 89.9339 167.278 89.5385 167.278 89.5385C167.278 89.5385 166.558 89.962 166.242 89.6112C165.926 89.2604 166.014 88.5027 166.014 88.5027C165.989 88.5606 165.938 88.6084 165.873 88.6427Z" fill="#CE947A"/>
<path d="M166.024 88.8975C166.031 88.8975 166.035 88.8402 166.037 88.736C166.038 88.6321 166.033 88.4812 166.016 88.2963C165.986 87.9257 165.909 87.4184 165.825 86.8609C165.74 86.3032 165.677 85.7967 165.671 85.4294C165.661 85.0615 165.718 84.8391 165.701 84.835C165.695 84.8332 165.677 84.8879 165.65 84.9894C165.628 85.0916 165.608 85.2425 165.602 85.4291C165.59 85.8029 165.643 86.3162 165.728 86.8754C165.813 87.4347 165.9 87.9379 165.947 88.304C165.997 88.6696 166.009 88.8978 166.024 88.8975Z" fill="#A56349"/>
<path d="M167.248 89.543C167.26 89.5454 167.302 89.4007 167.332 89.1594C167.363 88.9185 167.374 88.5821 167.356 88.2133C167.337 87.8445 167.299 87.5129 167.269 87.2737C167.237 87.0345 167.212 86.8875 167.199 86.8887C167.167 86.891 167.216 87.4872 167.258 88.218C167.276 88.5836 167.276 88.9143 167.263 89.1532C167.251 89.3924 167.233 89.54 167.248 89.543Z" fill="#A56349"/>
<path d="M168.919 88.9571C168.944 88.9603 169.021 88.4574 168.998 87.8323C168.977 87.2072 168.866 86.7108 168.841 86.7159C168.812 86.7206 168.88 87.2184 168.9 87.8359C168.923 88.4527 168.891 88.9544 168.919 88.9571Z" fill="#A56349"/>
<path d="M170.296 88.2789C170.322 88.2824 170.39 87.8941 170.379 87.4098C170.37 86.9256 170.285 86.5405 170.26 86.545C170.232 86.5491 170.272 86.935 170.281 87.4119C170.292 87.8885 170.268 88.2759 170.296 88.2789Z" fill="#A56349"/>
<path d="M168.761 85.9961C168.773 85.9967 168.791 85.9352 168.774 85.8351C168.759 85.7365 168.699 85.5995 168.577 85.4973C168.455 85.3955 168.31 85.3618 168.21 85.3639C168.108 85.3653 168.051 85.3943 168.054 85.4058C168.054 85.433 168.303 85.396 168.514 85.5723C168.726 85.7489 168.734 86.0005 168.761 85.9961Z" fill="#A56349"/>
<path d="M170.259 85.4939C170.285 85.4913 170.246 85.2955 170.055 85.17C169.864 85.0424 169.669 85.0829 169.677 85.1086C169.678 85.1366 169.842 85.1434 170.001 85.2515C170.162 85.3554 170.232 85.5037 170.259 85.4939Z" fill="#A56349"/>
<path d="M167.026 85.7501C167.054 85.7537 167.061 85.609 166.935 85.511C166.81 85.4117 166.671 85.4525 166.681 85.4788C166.685 85.5059 166.785 85.5142 166.875 85.5877C166.967 85.6577 166.999 85.7528 167.026 85.7501Z" fill="#A56349"/>
<path d="M165.208 80.6157C165.206 80.6154 165.203 80.6302 165.197 80.6588C165.191 80.6925 165.183 80.7347 165.174 80.7873C165.155 80.9069 165.128 81.0737 165.094 81.2863C165.027 81.7219 164.933 82.3567 164.827 83.1543C164.775 83.5532 164.719 83.9923 164.672 84.4695C164.653 84.7081 164.62 84.9558 164.64 85.2177C164.658 85.4764 164.7 85.7392 164.747 86.0085C164.845 86.5465 164.974 87.109 165.119 87.694C165.156 87.8402 165.194 87.9878 165.232 88.1369C165.251 88.2113 165.271 88.286 165.29 88.3613C165.307 88.4352 165.342 88.527 165.403 88.5881C165.519 88.7172 165.725 88.7774 165.895 88.6788C165.931 88.6501 165.934 88.6283 165.944 88.6064C165.952 88.5849 165.958 88.5642 165.963 88.5432C165.973 88.5019 165.98 88.4611 165.985 88.4201C165.997 88.3377 166.004 88.258 166.004 88.1706C166.004 88.1443 165.983 88.1233 165.957 88.1233C165.931 88.1233 165.91 88.1446 165.91 88.1703C165.905 88.3808 165.912 88.592 165.934 88.8063C165.957 89.0198 165.991 89.2378 166.079 89.4477C166.125 89.5502 166.189 89.6574 166.296 89.7232C166.402 89.7888 166.527 89.8041 166.643 89.7967C166.878 89.7784 167.092 89.6916 167.295 89.5812L167.234 89.5714C167.319 89.6597 167.423 89.7267 167.539 89.7761C167.833 89.8995 168.176 89.8558 168.435 89.6881C168.696 89.5162 168.861 89.2475 168.948 88.9622L168.891 88.9974C169.188 89.0526 169.493 89.0417 169.77 88.9292C170.051 88.8202 170.253 88.5648 170.338 88.2937L170.339 88.2905C170.387 88.0853 170.435 87.8833 170.482 87.6843L170.444 87.7191C170.575 87.6996 170.704 87.6784 170.832 87.6541C170.896 87.642 170.96 87.629 171.023 87.6137C171.055 87.606 171.087 87.5974 171.119 87.5871C171.159 87.5709 171.19 87.5464 171.214 87.5198C171.307 87.4129 171.354 87.2936 171.402 87.1773C171.449 87.0597 171.487 86.9419 171.522 86.8247C171.66 86.3549 171.754 85.8987 171.834 85.4631C171.835 85.4572 171.834 85.4513 171.833 85.4457C171.426 83.9923 171.09 82.7943 170.854 81.9528C170.736 81.5406 170.643 81.216 170.578 80.9878C170.546 80.8815 170.521 80.7982 170.503 80.7356C170.485 80.6789 170.475 80.65 170.473 80.6506C170.471 80.6512 170.477 80.681 170.491 80.7389C170.507 80.8021 170.528 80.8865 170.555 80.994C170.616 81.2234 170.702 81.55 170.811 81.9646C171.039 82.8082 171.363 84.0094 171.757 85.4667L171.756 85.4492C171.675 85.8807 171.578 86.3363 171.44 86.7993C171.405 86.9147 171.366 87.0305 171.321 87.1442C171.275 87.2558 171.224 87.3736 171.149 87.4581C171.13 87.4796 171.11 87.4926 171.091 87.5015C171.062 87.5103 171.033 87.5183 171.002 87.5257C170.941 87.5402 170.879 87.5529 170.815 87.5647C170.689 87.588 170.561 87.609 170.431 87.6279C170.412 87.6305 170.397 87.645 170.393 87.6627C170.345 87.8617 170.297 88.0634 170.248 88.2686L170.249 88.2654C170.167 88.5167 169.989 88.7414 169.733 88.8412C169.483 88.9442 169.187 88.9549 168.913 88.9032C168.887 88.8985 168.862 88.9138 168.855 88.9383C168.775 89.1979 168.616 89.4548 168.383 89.6066C168.15 89.7569 167.837 89.797 167.577 89.6863C167.474 89.6438 167.375 89.5776 167.307 89.507C167.291 89.4899 167.266 89.4867 167.246 89.4973C167.056 89.6007 166.846 89.6845 166.637 89.6999C166.533 89.7067 166.429 89.6919 166.347 89.6408C166.265 89.5912 166.21 89.5029 166.168 89.409C166.087 89.2171 166.052 89.0045 166.03 88.7963C166.007 88.5875 166.001 88.3776 166.005 88.1735L165.91 88.1732C165.91 88.2482 165.903 88.33 165.892 88.4071C165.887 88.4458 165.881 88.4845 165.872 88.5211C165.868 88.5562 165.841 88.5961 165.847 88.6079C165.787 88.6239 165.716 88.6466 165.649 88.6277C165.582 88.6135 165.518 88.5766 165.472 88.5252C165.422 88.473 165.398 88.4142 165.38 88.3377C165.359 88.2627 165.34 88.188 165.32 88.1139C165.282 87.9651 165.244 87.818 165.206 87.6724C165.059 87.089 164.928 86.5282 164.828 85.9938C164.779 85.7265 164.737 85.4655 164.717 85.2124C164.696 84.9614 164.727 84.7134 164.744 84.476C164.787 84.0003 164.839 83.5609 164.887 83.1617C164.989 82.3691 165.07 81.7343 165.126 81.2907C165.154 81.077 165.175 80.9095 165.191 80.7894C165.197 80.7362 165.201 80.6934 165.205 80.6597C165.208 80.6311 165.209 80.616 165.208 80.6157Z" fill="#A56349"/>
<path d="M146.493 35.9899C146.493 35.9899 148.822 36.1393 151.267 34.5444C151.267 34.5444 150.179 37.212 146.501 36.9436L146.493 35.9899Z" fill="#A56349"/>
<path opacity="0.3" d="M161.302 55.9857L162.333 55.8481L164.213 64.3004L164.109 66.184L164.781 69.3728L165.006 74.6628C165.006 74.6628 162.468 66.7087 162.332 64.8103C162.186 62.7708 161.302 55.9857 161.302 55.9857Z" fill="black"/>
<path d="M136.943 86.5752H112.198L109.639 98.293L114.751 139.951H122.665L124.474 103.259L126.381 139.951H134.864L138.428 98.7551L136.943 86.5752Z" fill="#263238"/>
<path d="M118.027 139.37C117.984 139.37 117.877 132.028 117.786 122.973C117.696 113.914 117.657 106.573 117.7 106.573C117.742 106.572 117.85 113.913 117.94 122.971C118.031 132.027 118.069 139.369 118.027 139.37Z" fill="#DB7362"/>
<path d="M130.705 139.231C130.702 139.23 130.703 139.199 130.708 139.139C130.714 139.07 130.723 138.981 130.733 138.87C130.759 138.624 130.797 138.279 130.844 137.84C130.947 136.947 131.083 135.652 131.235 134.051C131.39 132.451 131.545 130.542 131.687 128.421C131.822 126.299 131.939 123.965 132.01 121.512C132.075 119.059 132.089 116.721 132.073 114.595C132.05 112.469 132.001 110.555 131.936 108.948C131.873 107.341 131.809 106.041 131.756 105.143C131.733 104.703 131.715 104.356 131.703 104.109C131.698 103.998 131.695 103.909 131.693 103.84C131.691 103.779 131.692 103.748 131.694 103.748C131.697 103.747 131.702 103.778 131.708 103.839C131.715 103.907 131.723 103.996 131.734 104.107C131.753 104.353 131.781 104.699 131.816 105.139C131.888 106.036 131.967 107.336 132.045 108.943C132.124 110.55 132.183 112.466 132.215 114.593C132.238 116.721 132.229 119.061 132.164 121.517C132.092 123.971 131.971 126.307 131.829 128.43C131.679 130.552 131.513 132.462 131.344 134.062C131.177 135.662 131.025 136.956 130.904 137.847C130.844 138.285 130.797 138.629 130.764 138.874C130.747 138.984 130.734 139.072 130.724 139.14C130.714 139.201 130.707 139.231 130.705 139.231Z" fill="#DB7362"/>
<path d="M123.559 48.9883L114.118 49.4982L113.346 53.0597C113.346 53.0597 115.955 55.1526 116.213 55.2389C116.471 55.3251 122.406 56.1563 122.406 56.1563C122.406 56.1563 128.8 53.1745 128.714 53.2032C128.628 53.2315 123.559 48.9883 123.559 48.9883Z" fill="#F4C3AE"/>
<path d="M115.331 32.4947C114.791 31.9354 113.884 32.0426 113.121 32.1917C112.677 32.2785 112.225 32.368 111.825 32.5806C111.425 32.7932 111.078 33.1511 110.991 33.5955C110.857 34.2705 111.338 34.9432 111.251 35.6256C111.189 36.1063 110.846 36.5144 110.437 36.7734C110.027 37.0323 109.553 37.1652 109.086 37.2951C109.545 37.8845 110.263 38.264 111.009 38.3112C110.966 38.5578 110.652 38.626 110.404 38.6588C110.156 38.6918 109.844 38.8312 109.88 39.0787C109.899 39.2021 110.003 39.2921 110.103 39.3674C111.397 40.3431 113.042 40.8406 114.66 40.7447C115.422 40.6995 116.229 40.4972 116.736 39.9264C117.21 39.3937 117.336 38.636 117.33 37.9232C117.314 35.9729 116.409 34.0473 114.917 32.7903" fill="#ADADAD"/>
<path d="M114.914 32.8468C114.68 31.8777 114.919 30.8058 115.544 30.0283C116.168 29.2509 117.163 28.7855 118.16 28.8047C118.512 28.8115 118.88 28.8726 119.205 28.7371C119.503 28.6128 119.712 28.3446 119.951 28.1276C120.641 27.5013 121.604 27.2908 122.524 27.1455C123.831 26.9388 125.201 26.8198 126.45 27.2547C127.699 27.6894 128.795 28.8115 128.813 30.1344C128.82 30.7149 128.626 31.2804 128.594 31.8603C128.562 32.4399 128.753 33.1034 129.279 33.3497C129.618 33.5083 130.061 33.4802 130.303 33.7652C130.511 34.0109 130.463 34.3986 130.28 34.6634C130.097 34.9283 129.809 35.099 129.531 35.2617C130.018 35.3585 130.361 35.8579 130.367 36.3539C130.374 36.85 130.092 37.3186 129.707 37.6319C129.323 37.9449 128.844 38.1206 128.363 38.2405C126.081 38.8095 123.656 38.2219 121.509 37.2619C119.149 36.2066 116.991 34.6989 115.189 32.8451C115.249 32.7754 115.309 32.7057 115.369 32.6357" fill="#ADADAD"/>
<path d="M114.332 33.9457C114.403 33.7355 115.021 32.322 115.242 32.337C115.4 32.348 115.033 33.6605 115.116 33.7951C115.916 35.0796 116.169 36.6455 116.092 38.1565C116.015 39.6678 115.741 41.0329 115.342 42.4925" fill="#ADADAD"/>
<path d="M115.339 42.4942C114.846 41.1164 114.358 39.7283 114.109 38.2861Z" fill="#ADADAD"/>
<path d="M119.645 54.5679C117.376 54.5871 115.508 52.7897 115.44 50.5219L115.029 36.8744C114.802 33.2114 116.744 30.0262 120.411 29.9004L120.751 29.9087C124.169 29.991 126.952 32.6832 127.145 36.0964C127.324 39.2724 127.481 42.7837 127.419 44.4836C127.291 48.0028 123.757 48.4655 123.757 48.4655C123.749 48.4658 123.761 49.2817 123.781 50.3149C123.825 52.6361 121.966 54.5481 119.645 54.5679Z" fill="#F4C3AE"/>
<path d="M123.771 48.5065C123.771 48.5065 121.549 48.5833 119.22 47.041C119.22 47.041 120.276 49.6283 123.796 49.3959L123.771 48.5065Z" fill="#CC937F"/>
<path d="M121.293 42.8184C121.499 42.5987 121.843 42.5211 122.123 42.6312C122.404 42.7411 122.603 43.0319 122.605 43.3331C122.606 43.6343 122.41 43.9269 122.131 44.0397C121.939 44.1174 121.72 44.1129 121.521 44.0568C121.369 44.0143 121.221 43.939 121.126 43.8138C120.989 43.634 120.985 43.3783 121.068 43.168C121.151 42.9578 121.232 42.8787 121.399 42.7263" fill="#CC937F"/>
<path d="M126.26 38.456C126.263 38.7217 126.041 38.9432 125.763 38.9514C125.486 38.9594 125.259 38.7515 125.256 38.4858C125.253 38.22 125.475 37.9983 125.752 37.99C126.03 37.9814 126.257 38.1902 126.26 38.456Z" fill="#263238"/>
<path d="M126.402 37.8115C126.338 37.8756 125.964 37.5845 125.423 37.573C124.883 37.5535 124.479 37.8222 124.422 37.7546C124.394 37.7244 124.461 37.6078 124.636 37.4858C124.809 37.3648 125.103 37.2496 125.44 37.2594C125.777 37.2694 126.057 37.4002 126.217 37.531C126.38 37.6627 126.434 37.7829 126.402 37.8115Z" fill="#263238"/>
<path d="M121.193 38.4638C121.196 38.7295 120.973 38.951 120.696 38.9592C120.419 38.9675 120.191 38.7593 120.189 38.4936C120.186 38.2278 120.408 38.0061 120.685 37.9978C120.962 37.9895 121.19 38.198 121.193 38.4638Z" fill="#263238"/>
<path d="M121.173 37.8203C121.109 37.8844 120.734 37.5935 120.194 37.5817C119.654 37.5625 119.25 37.8312 119.193 37.7633C119.165 37.7332 119.231 37.6166 119.407 37.4949C119.58 37.3735 119.873 37.2587 120.21 37.2681C120.547 37.2782 120.828 37.409 120.988 37.5398C121.151 37.6718 121.204 37.7917 121.173 37.8203Z" fill="#263238"/>
<path d="M122.897 41.8726C122.896 41.8419 123.233 41.7917 123.78 41.7353C123.918 41.7244 124.05 41.7001 124.075 41.6062C124.11 41.5073 124.056 41.357 123.993 41.1946C123.871 40.8571 123.744 40.5036 123.61 40.1328C123.078 38.6215 122.697 37.3801 122.758 37.3592C122.82 37.3382 123.3 38.5465 123.831 40.0578C123.958 40.4304 124.081 40.7856 124.197 41.1255C124.245 41.2838 124.331 41.4639 124.255 41.6694C124.216 41.7716 124.112 41.8442 124.023 41.8658C123.934 41.8906 123.856 41.8903 123.788 41.8927C123.239 41.9092 122.899 41.9036 122.897 41.8726Z" fill="#263238"/>
<path d="M121.284 42.214C121.372 42.211 121.359 42.7983 121.852 43.2271C122.344 43.6573 122.971 43.6065 122.974 43.6886C122.981 43.7255 122.832 43.7994 122.567 43.8002C122.308 43.8029 121.932 43.7105 121.63 43.4483C121.33 43.1852 121.206 42.8412 121.192 42.5996C121.175 42.3533 121.244 42.2095 121.284 42.214Z" fill="#263238"/>
<path d="M121.237 35.7037C121.18 35.8496 120.642 35.7669 120.005 35.828C119.368 35.8765 118.852 36.0498 118.77 35.916C118.734 35.852 118.827 35.7158 119.037 35.5782C119.246 35.4409 119.576 35.3137 119.958 35.2806C120.34 35.2481 120.688 35.3169 120.916 35.4167C121.148 35.5159 121.262 35.6343 121.237 35.7037Z" fill="#ADADAD"/>
<path d="M126.172 36.2764C126.074 36.3971 125.704 36.2604 125.256 36.2436C124.809 36.2111 124.427 36.3062 124.342 36.1757C124.306 36.1125 124.368 35.9908 124.537 35.8783C124.703 35.7664 124.978 35.6781 125.286 35.6949C125.594 35.7121 125.858 35.8299 126.011 35.9595C126.166 36.0894 126.215 36.2173 126.172 36.2764Z" fill="#ADADAD"/>
<path d="M115.265 39.5361C115.205 39.5086 112.863 38.7624 112.882 41.1711C112.901 43.5797 115.315 43.0638 115.319 42.9947C115.322 42.9256 115.265 39.5361 115.265 39.5361Z" fill="#F4C3AE"/>
<path d="M114.576 42.0832C114.565 42.0755 114.534 42.1127 114.463 42.1458C114.394 42.1779 114.275 42.2007 114.15 42.1546C113.895 42.0631 113.677 41.6609 113.662 41.2268C113.654 41.0077 113.698 40.7987 113.775 40.6253C113.847 40.4485 113.96 40.3244 114.088 40.3008C114.215 40.2704 114.306 40.3463 114.336 40.4139C114.369 40.4809 114.354 40.5291 114.367 40.5332C114.374 40.5391 114.418 40.4925 114.398 40.3932C114.388 40.3454 114.359 40.289 114.302 40.2429C114.244 40.1963 114.159 40.1733 114.07 40.1836C113.884 40.1978 113.718 40.3702 113.634 40.5604C113.54 40.7517 113.485 40.9868 113.494 41.2327C113.513 41.7179 113.765 42.1703 114.114 42.268C114.284 42.3108 114.425 42.2586 114.498 42.2013C114.572 42.1413 114.584 42.0876 114.576 42.0832Z" fill="#CC937F"/>
<path d="M125.604 32.2244C125.991 32.0029 124.722 30.7111 123.757 30.2924C122.298 29.6599 120.081 29.2922 118.752 29.6929C117.153 30.1754 115.831 30.9972 115.048 32.4733C114.266 33.9495 113.991 35.6586 114.066 37.3278C114.088 37.8369 113.122 38.1286 113.401 38.555C113.743 39.0762 113.662 38.8314 114.243 39.5522C114.405 39.7542 114.659 39.9851 114.83 40.1806C115.285 40.7023 116.422 40.8071 116.669 40.35C117.181 39.4004 117.446 38.6043 117.475 37.5256C117.495 36.7877 117.509 35.6695 117.315 34.9573C117.249 34.7151 117.21 34.4836 117.217 34.1446C117.224 33.7262 117.348 33.2148 117.596 32.8779C117.64 32.8182 117.716 32.7411 117.812 32.6555C118.383 32.1482 119.203 32.0162 119.927 32.2569C121.301 32.7131 122.41 33.464 123.979 32.7899C124.326 32.6405 124.494 32.3508 124.653 32.1825C124.889 31.9318 125.362 31.953 125.604 32.199L125.604 32.2244Z" fill="#ADADAD"/>
<path d="M117.595 32.7609C118.369 32.326 119.322 32.2241 120.17 32.486C120.889 32.7081 121.509 33.1693 122.201 33.4655C123.74 34.124 125.628 33.8783 126.948 32.8483C127.313 32.5631 127.656 32.1813 127.683 31.7186C127.705 31.3338 127.498 30.9626 127.208 30.7081C126.919 30.4536 126.556 30.2994 126.192 30.1734C124.52 29.594 122.699 29.5237 120.947 29.7727C119.535 29.9732 118.091 30.4108 117.07 31.4073C116.933 31.5417 116.801 31.6899 116.733 31.8701C116.665 32.0502 116.671 32.2687 116.792 32.4184C116.913 32.5681 117.163 32.6118 117.303 32.4792" fill="#ADADAD"/>
<path d="M127.004 38.3109C127.009 38.354 126.873 38.4027 126.711 38.4579C126.549 38.512 126.411 38.5551 126.388 38.5182C126.366 38.4827 126.481 38.3726 126.662 38.3124C126.843 38.2512 127.001 38.2696 127.004 38.3109Z" fill="#CC937F"/>
<path d="M127.212 38.6936C127.206 38.7361 127.033 38.7455 126.825 38.7461C126.617 38.7455 126.444 38.7364 126.438 38.6936C126.431 38.6522 126.604 38.592 126.825 38.5923C127.046 38.5917 127.218 38.6522 127.212 38.6936Z" fill="#CC937F"/>
<path d="M118.821 38.4733C118.816 38.5161 118.58 38.5249 118.292 38.5249C118.004 38.5241 117.767 38.5149 117.763 38.4721C117.758 38.4305 117.995 38.3705 118.292 38.3711C118.589 38.3711 118.826 38.4316 118.821 38.4733Z" fill="#CC937F"/>
<path d="M118.788 38.9613C118.779 39.0038 118.576 38.9979 118.33 38.9991C118.083 38.9988 117.88 39.0056 117.871 38.963C117.863 38.9226 118.066 38.8452 118.329 38.8452C118.593 38.8443 118.797 38.9208 118.788 38.9613Z" fill="#CC937F"/>
<path d="M121.017 39.7464C121.029 39.7609 120.95 39.8571 120.776 39.9531C120.605 40.0491 120.331 40.1338 120.024 40.1046C119.717 40.0753 119.464 39.9401 119.314 39.8137C119.162 39.6864 119.103 39.5772 119.117 39.5654C119.145 39.5299 119.479 39.8993 120.039 39.9516C120.598 40.0059 120.996 39.7062 121.017 39.7464Z" fill="#CC937F"/>
<path d="M121.264 39.6316C121.281 39.6685 121.025 39.8028 120.678 39.8022C120.33 39.804 120.074 39.6705 120.091 39.6336C120.105 39.5917 120.361 39.6511 120.677 39.6484C120.994 39.6499 121.249 39.5896 121.264 39.6316Z" fill="#CC937F"/>
<path d="M126.488 39.2959C126.507 39.3305 126.139 39.5419 125.628 39.588C125.117 39.6379 124.716 39.4988 124.729 39.461C124.739 39.4167 125.132 39.4825 125.614 39.4347C126.095 39.3922 126.47 39.254 126.488 39.2959Z" fill="#CC937F"/>
<path d="M126.231 39.4805C126.263 39.5053 125.967 39.8136 125.471 39.8989C124.975 39.9896 124.591 39.8018 124.612 39.7678C124.625 39.7241 124.995 39.8316 125.444 39.7477C125.894 39.6719 126.204 39.4439 126.231 39.4805Z" fill="#CC937F"/>
<path d="M125.106 35.1906C125.11 35.2095 124.88 35.2772 124.498 35.3374C124.116 35.3979 123.58 35.4422 122.989 35.4189C122.397 35.3944 121.867 35.3067 121.491 35.2154C121.115 35.1245 120.891 35.0383 120.897 35.02C120.908 34.9733 121.829 35.2222 122.995 35.2653C124.16 35.3167 125.099 35.1431 125.106 35.1906Z" fill="#CC937F"/>
<path d="M125.47 34.7685C125.476 34.8078 124.604 34.954 123.518 34.9487C122.431 34.9469 121.561 34.7948 121.567 34.7556C121.573 34.7107 122.443 34.7931 123.519 34.7948C124.594 34.8004 125.465 34.7237 125.47 34.7685Z" fill="#CC937F"/>
<path d="M122.723 36.5134C122.681 36.5046 122.667 36.4 122.663 36.2781C122.659 36.1561 122.666 36.051 122.708 36.0395C122.748 36.0277 122.812 36.1307 122.817 36.2731C122.822 36.4154 122.764 36.5226 122.723 36.5134Z" fill="#CC937F"/>
<path d="M123.465 36.6085C123.451 36.6487 123.28 36.5961 123.207 36.4095C123.133 36.2232 123.223 36.0679 123.26 36.0876C123.301 36.1021 123.296 36.2241 123.35 36.3531C123.399 36.4842 123.485 36.5698 123.465 36.6085Z" fill="#CC937F"/>
<path d="M121.215 42.057C121.214 42.1007 121.045 42.1279 120.893 42.2549C120.737 42.3765 120.675 42.5357 120.632 42.528C120.589 42.5292 120.593 42.298 120.797 42.1353C120.999 41.9711 121.225 42.0157 121.215 42.057Z" fill="#CC937F"/>
<path d="M120.586 42.0128C120.577 42.0547 120.487 42.0775 120.418 42.161C120.344 42.2396 120.333 42.332 120.292 42.3468C120.273 42.3521 120.243 42.3258 120.234 42.2673C120.224 42.2101 120.244 42.1256 120.303 42.0595C120.361 41.993 120.442 41.9626 120.5 41.965C120.559 41.9667 120.589 41.993 120.586 42.0128Z" fill="#CC937F"/>
<path d="M118.298 51.4386C118.295 51.4457 118.228 51.4345 118.134 51.3577C118.039 51.283 117.942 51.1248 117.902 50.9154C117.857 50.7075 117.881 50.4465 117.933 50.1849C117.976 49.9235 118.033 49.6285 117.929 49.3637C117.878 49.2332 117.781 49.1115 117.724 48.9583C117.659 48.8009 117.694 48.6261 117.726 48.502C117.758 48.3712 117.774 48.262 117.738 48.1625C117.704 48.0618 117.64 47.9711 117.587 47.8828C117.467 47.7083 117.444 47.5075 117.492 47.3921C117.541 47.2701 117.626 47.2559 117.625 47.2633C117.634 47.2745 117.57 47.3067 117.55 47.4092C117.528 47.5111 117.556 47.6676 117.678 47.8232C117.735 47.9053 117.808 47.9944 117.858 48.1193C117.912 48.2469 117.893 48.4034 117.864 48.5319C117.836 48.6662 117.814 48.7858 117.865 48.9054C117.91 49.0282 118.007 49.1478 118.072 49.3064C118.196 49.6321 118.12 49.9513 118.072 50.2106C118.012 50.4745 117.982 50.7025 118.01 50.8977C118.033 51.0908 118.103 51.2355 118.176 51.3149C118.247 51.3964 118.304 51.4268 118.298 51.4386Z" fill="#CC937F"/>
<path d="M119.827 51.7309C119.826 51.738 119.751 51.7421 119.646 51.6686C119.539 51.5977 119.432 51.4412 119.358 51.2366C119.226 50.8282 119.034 50.2698 118.963 49.6101C118.947 49.4457 118.942 49.2838 118.948 49.1273C118.953 48.9694 118.975 48.8253 118.96 48.6983C118.949 48.4325 118.693 48.3404 118.525 48.1872C118.442 48.1113 118.379 48.0141 118.368 47.9164C118.357 47.8124 118.405 47.7348 118.452 47.6896C118.56 47.5925 118.652 47.6506 118.64 47.6554C118.64 47.6681 118.564 47.6444 118.496 47.7304C118.465 47.7702 118.438 47.8364 118.453 47.9019C118.468 47.9728 118.52 48.0434 118.597 48.1054C118.673 48.1689 118.776 48.2191 118.883 48.3011C118.993 48.3776 119.087 48.5267 119.101 48.6806C119.123 48.8338 119.1 48.985 119.099 49.1324C119.095 49.2818 119.101 49.4368 119.117 49.5951C119.184 50.2279 119.359 50.7954 119.461 51.2017C119.519 51.401 119.601 51.5463 119.684 51.6222C119.764 51.7011 119.831 51.7179 119.827 51.7309Z" fill="#CC937F"/>
<path d="M120.504 28.3577C120.502 28.353 120.549 28.3282 120.64 28.286C120.73 28.2414 120.867 28.1865 121.046 28.1188C121.403 27.9889 121.939 27.8354 122.62 27.7604C123.299 27.6851 124.127 27.6972 125.011 27.9095C125.451 28.0131 125.909 28.1652 126.344 28.4115C126.773 28.6586 127.188 29.0124 127.427 29.4981C127.675 29.9762 127.734 30.5169 127.677 31.012C127.615 31.509 127.441 31.9729 127.185 32.3544C126.935 32.7427 126.598 33.0368 126.255 33.253C125.912 33.4718 125.556 33.6117 125.223 33.6988C124.555 33.8751 123.99 33.8539 123.612 33.8128C123.422 33.791 123.276 33.7641 123.179 33.7393C123.081 33.7157 123.031 33.7009 123.032 33.6956C123.035 33.6814 123.241 33.7266 123.617 33.7529C123.992 33.7753 124.548 33.7789 125.194 33.5937C125.516 33.5022 125.859 33.3607 126.186 33.1452C126.514 32.9317 126.832 32.6476 127.066 32.2765C127.307 31.9109 127.47 31.4665 127.527 30.9943C127.58 30.5233 127.521 30.0134 127.29 29.5678C127.068 29.116 126.679 28.7806 126.269 28.5417C125.853 28.3037 125.408 28.1519 124.977 28.0468C124.114 27.8315 123.3 27.8079 122.631 27.8684C121.959 27.9284 121.425 28.0636 121.064 28.1752C120.703 28.2892 120.509 28.3707 120.504 28.3577Z" fill="white"/>
<path d="M128.713 29.9146C128.729 29.9108 128.791 30.1384 128.733 30.5066C128.679 30.8728 128.475 31.3609 128.109 31.7911C127.743 32.2208 127.33 32.5184 127.031 32.7207C126.729 32.9215 126.533 33.0299 126.521 33.0133C126.508 32.9953 126.683 32.8547 126.967 32.633C127.248 32.4098 127.641 32.1041 127.991 31.6922C128.341 31.2806 128.548 30.8282 128.627 30.4854C128.709 30.1414 128.687 29.9161 128.713 29.9146Z" fill="white"/>
<path d="M119.767 30.3408C119.782 30.3866 118.828 30.5708 117.874 31.2414C117.408 31.5777 116.992 31.928 116.856 32.2693C116.711 32.6151 116.823 32.854 116.799 32.8575C116.791 32.8616 116.751 32.8117 116.723 32.7022C116.696 32.5941 116.688 32.4237 116.754 32.2309C116.886 31.8329 117.31 31.4596 117.786 31.115C118.276 30.7737 118.778 30.562 119.15 30.453C119.523 30.3417 119.764 30.3231 119.767 30.3408Z" fill="white"/>
<path d="M117.444 29.8537C117.457 29.8723 117.317 29.9834 117.097 30.1641C116.879 30.3457 116.577 30.602 116.352 30.961C116.13 31.3189 116.067 31.7134 116.1 31.9848C116.129 32.26 116.228 32.4133 116.205 32.4262C116.194 32.4372 116.054 32.2987 115.992 32.0013C115.928 31.709 115.978 31.2708 116.222 30.8798C116.465 30.4924 116.794 30.2394 117.031 30.077C117.272 29.9157 117.433 29.8372 117.444 29.8537Z" fill="white"/>
<path d="M112.639 34.1974C112.623 34.1897 112.697 33.9875 112.91 33.7158C113.119 33.4453 113.485 33.1152 113.978 32.9138C114.47 32.7121 114.963 32.6906 115.302 32.7366C115.644 32.7812 115.838 32.8736 115.832 32.8902C115.825 32.9141 115.623 32.8607 115.292 32.845C114.964 32.8282 114.5 32.866 114.036 33.0561C113.572 33.246 113.215 33.5439 112.992 33.7864C112.767 34.0294 112.66 34.2098 112.639 34.1974Z" fill="white"/>
<path d="M114.398 35.446C114.381 35.4519 114.303 35.2975 114.288 35.0232C114.27 34.7533 114.337 34.3567 114.585 34.0089C114.834 33.6616 115.187 33.47 115.448 33.3991C115.713 33.325 115.884 33.3486 115.884 33.366C115.886 33.3908 115.721 33.4071 115.483 33.5019C115.246 33.5943 114.935 33.7842 114.71 34.098C114.485 34.4125 114.407 34.7692 114.396 35.0229C114.384 35.2792 114.422 35.4398 114.398 35.446Z" fill="white"/>
<path d="M129.663 35.3074C129.665 35.324 129.463 35.3733 129.135 35.3237C128.812 35.277 128.362 35.1049 128.006 34.7355C127.65 34.3652 127.495 33.9084 127.461 33.5839C127.423 33.2546 127.48 33.0544 127.497 33.0577C127.522 33.0594 127.506 33.2593 127.568 33.5664C127.628 33.8709 127.788 34.2872 128.116 34.6286C128.445 34.9693 128.855 35.1456 129.157 35.2168C129.461 35.2909 129.662 35.2817 129.663 35.3074Z" fill="white"/>
<path d="M129.62 36.3835C129.631 36.4201 129.008 36.5409 128.274 36.328C127.537 36.1219 127.072 35.6904 127.1 35.665C127.127 35.6261 127.613 35.9845 128.316 36.18C129.015 36.3844 129.618 36.3362 129.62 36.3835Z" fill="white"/>
<path d="M125.754 48.9551C126.128 48.9551 130.112 48.4233 132.548 50.0276C134.985 51.6319 141.523 64.0324 141.523 64.0324C141.523 64.0324 143.517 70.6385 140.712 71.9472C137.908 73.2559 130.492 77.2446 130.492 77.2446L128.684 70.7008L133.795 68.3326V62.0383L125.754 48.9551Z" fill="#DB7362"/>
<path d="M133.792 62.584L136.543 62.7346C138.05 62.817 139.443 63.5617 140.348 64.7688L142.132 67.1485C142.132 67.1485 143.078 68.3781 142.803 68.9105C142.575 69.3534 142.124 69.3177 141.691 68.9279C141.258 68.5381 139.872 66.5027 139.872 66.5027C139.872 66.5027 142.425 69.7694 141.841 70.3718C141.231 71.0014 140.608 70.184 140.608 70.184C140.608 70.184 140.998 71.4399 140.219 71.3099C139.439 71.18 138.503 70.0107 138.503 70.0107C138.503 70.0107 138.616 70.7468 137.923 70.6603C137.23 70.5738 135.195 67.4556 135.021 67.4556C134.848 67.4556 133.938 67.3691 133.938 67.3691L133.792 62.584Z" fill="#CE947A"/>
<path d="M138.814 65.4775C138.848 65.4515 139.318 65.9594 139.863 66.6117C140.409 67.264 140.825 67.8159 140.794 67.8445C140.762 67.8732 140.293 67.3656 139.745 66.7103C139.198 66.0554 138.781 65.5032 138.814 65.4775Z" fill="#A56349"/>
<path d="M137.998 66.816C138.016 66.8038 138.172 67.0035 138.418 67.3289C138.664 67.6546 139.003 68.1046 139.387 68.5947C139.77 69.0849 140.125 69.5222 140.382 69.8397C140.639 70.1571 140.795 70.3567 140.779 70.3712C140.764 70.3851 140.579 70.2111 140.3 69.9108C140.021 69.6105 139.651 69.1821 139.265 68.6895C138.88 68.197 138.553 67.7343 138.329 67.3915C138.105 67.0486 137.981 66.8272 137.998 66.816Z" fill="#A56349"/>
<path d="M137.069 68.2068C137.096 68.177 137.519 68.5269 137.921 69.0673C138.325 69.6059 138.541 70.1106 138.505 70.128C138.465 70.1486 138.193 69.6859 137.798 69.1594C137.405 68.6309 137.038 68.2387 137.069 68.2068Z" fill="#A56349"/>
<path d="M132.034 55.427C132.006 55.4234 132.05 55.0962 132.032 54.5692C132.016 54.0433 131.913 53.3163 131.631 52.5639C131.347 51.8124 130.946 51.1973 130.612 50.791C130.278 50.3829 130.03 50.1653 130.048 50.1449C130.055 50.1369 130.122 50.1848 130.238 50.2793C130.356 50.3717 130.514 50.522 130.694 50.7204C131.056 51.1158 131.484 51.7388 131.775 52.5098C132.064 53.2817 132.152 54.032 132.14 54.568C132.135 54.8361 132.116 55.0531 132.088 55.2002C132.063 55.3481 132.044 55.4284 132.034 55.427Z" fill="#263238"/>
<path d="M114.758 53.273C114.758 53.273 118.357 55.3545 121.089 54.7474C123.821 54.1403 125.755 52.2324 125.755 52.2324L130.585 63.29L127.723 85.4484L119.094 86.5758L116.232 65.5639L114.758 53.273Z" fill="#FAFAFA"/>
<path d="M114.486 49.3677C114.364 49.4084 112.612 50.0273 112.612 50.0273L109.146 72.6385C109.146 72.6385 106.46 82.0557 106.704 86.1247C106.948 90.1938 109.134 102.797 109.134 102.797L124.949 101.131L124.293 76.3868C124.293 76.3868 125.433 69.2657 122.055 64.9525C118.678 60.6393 114.486 49.3677 114.486 49.3677Z" fill="#DB7362"/>
<path d="M123.557 48.8706C123.777 49.1812 127.235 62.322 126.862 65.0885C126.489 67.8551 124.477 73.6542 124.477 73.6542L124.478 101.052L138.433 99.7756C138.433 99.7756 139.575 89.7738 138.433 84.9857C137.29 80.1977 135.624 74.5226 135.624 74.5226L134.523 57.8L127.501 48.8706H123.557Z" fill="#DB7362"/>
<path d="M139.107 93.6573C139.105 93.6594 139.078 93.6452 139.027 93.6148C138.969 93.5796 138.894 93.5345 138.801 93.4781C138.603 93.3585 138.311 93.1778 137.92 92.9781C137.53 92.7812 137.032 92.5571 136.418 92.4711C136.112 92.4301 135.778 92.4369 135.437 92.5119C135.097 92.5901 134.756 92.7431 134.421 92.9433C134.086 93.1432 133.756 93.3892 133.409 93.6449C133.063 93.9003 132.703 94.1661 132.33 94.441C131.581 94.9893 130.791 95.5811 129.941 96.192C129.513 96.4861 129.022 96.7737 128.452 96.8266C127.881 96.8789 127.323 96.6843 126.804 96.4587C125.77 95.9883 124.696 95.5214 123.577 95.0829C123.017 94.8659 122.463 94.6471 121.911 94.4655C121.359 94.2883 120.795 94.1614 120.24 94.1868C119.685 94.208 119.16 94.405 118.708 94.692C118.253 94.9778 117.86 95.3384 117.489 95.7007C116.747 96.4221 116.072 97.1809 115.233 97.6283C115.134 97.6924 115.021 97.7278 114.916 97.7774C114.811 97.8285 114.702 97.8642 114.591 97.8926C114.374 97.9634 114.153 98.0051 113.934 98.0192C113.497 98.0511 113.079 98.0071 112.689 97.9413C111.12 97.6717 109.948 97.1151 109.147 96.7584C108.746 96.5729 108.439 96.4218 108.231 96.3184C108.134 96.2688 108.056 96.2292 107.996 96.1985C107.943 96.1708 107.917 96.1554 107.918 96.1528C107.919 96.1504 107.948 96.161 108.003 96.1843C108.065 96.2118 108.145 96.2467 108.245 96.2907C108.466 96.3896 108.776 96.5278 109.171 96.7041C109.979 97.0436 111.155 97.5816 112.706 97.8341C113.093 97.8961 113.503 97.9354 113.925 97.9011C114.137 97.8858 114.348 97.8444 114.556 97.7748C114.663 97.747 114.767 97.7122 114.868 97.662C114.968 97.6132 115.077 97.5793 115.173 97.5161C115.982 97.08 116.647 96.3287 117.39 95.5994C117.763 95.2335 118.161 94.8647 118.631 94.5677C119.096 94.2697 119.651 94.0592 120.234 94.0362C120.816 94.0087 121.398 94.1407 121.959 94.3196C122.52 94.5039 123.072 94.7218 123.634 94.9397C124.755 95.3788 125.835 95.8498 126.865 96.3205C127.377 96.5449 127.911 96.728 128.439 96.6804C128.967 96.6341 129.439 96.3642 129.862 96.0754C130.704 95.4639 131.505 94.8827 132.255 94.3382C132.63 94.0657 132.992 93.8026 133.34 93.5492C133.688 93.2965 134.023 93.0505 134.367 92.8497C134.71 92.6483 135.063 92.4936 135.417 92.4162C135.771 92.3421 136.117 92.3395 136.43 92.3858C137.059 92.4827 137.56 92.7186 137.949 92.925C138.339 93.1346 138.625 93.3236 138.818 93.4521C138.909 93.5138 138.98 93.5631 139.036 93.6018C139.084 93.6363 139.108 93.6552 139.107 93.6573Z" fill="#FAFAFA"/>
<path d="M120.311 72.6321C120.387 72.6067 122.794 71.2891 123.402 71.2129C124.011 71.1371 128.741 70.9067 128.741 70.9067L130.006 75.4845C130.006 75.4845 126.063 77.3962 125.455 77.5483C124.847 77.7004 122.262 78.6379 121.831 78.6379C121.401 78.6379 120.184 78.2325 120.184 77.9537C120.184 77.675 120.362 77.5737 120.362 77.5737C120.362 77.5737 121.629 77.5991 122.009 77.4724C122.389 77.3457 122.845 77.1178 122.845 77.1178C122.845 77.1178 118.512 77.7765 118.208 77.6753C117.903 77.574 117.676 76.9373 117.676 76.9373C117.676 76.9373 117.169 76.5857 117.118 76.2561C117.067 75.9266 117.245 75.7745 117.523 75.6478C117.802 75.5212 119.678 74.6849 120.235 74.5328C120.793 74.3808 122.262 74.1274 122.262 74.1274C122.262 74.1274 117.802 74.609 117.523 74.4823C117.245 74.3557 116.941 73.8741 117.397 73.5953C117.853 73.3166 118.689 72.8857 119.196 72.8099C119.703 72.7337 120.311 72.6321 120.311 72.6321Z" fill="#F4C3AE"/>
<path d="M123.483 75.3607C123.49 75.3796 123.173 75.516 122.647 75.702C122.122 75.8881 121.386 76.1187 120.56 76.3268C119.735 76.5344 118.977 76.6803 118.426 76.7653C117.875 76.8507 117.532 76.8808 117.528 76.861C117.525 76.8389 117.863 76.771 118.407 76.6584C118.951 76.5462 119.701 76.3844 120.523 76.1777C121.344 75.9704 122.081 75.7575 122.613 75.5987C123.146 75.4398 123.476 75.3397 123.483 75.3607Z" fill="#CC937F"/>
<path d="M123.066 71.9496C123.075 71.9909 122.473 72.1613 121.721 72.3296C120.968 72.4982 120.351 72.6012 120.342 72.5596C120.333 72.5183 120.935 72.3479 121.688 72.1796C122.439 72.0113 123.057 71.9082 123.066 71.9496Z" fill="#CC937F"/>
<path d="M128.836 72.738C128.834 72.7513 128.768 72.7431 128.656 72.7626C128.543 72.7817 128.39 72.8426 128.204 72.9418C128.019 73.0316 127.788 73.1842 127.473 73.1754C127.174 73.1579 126.877 72.9926 126.646 73.1934C126.525 73.2805 126.417 73.4092 126.258 73.4842C126.098 73.5586 125.928 73.5527 125.785 73.5285C125.494 73.4721 125.271 73.3599 125.069 73.3475C124.872 73.3268 124.715 73.4001 124.634 73.4718C124.551 73.5456 124.533 73.6124 124.52 73.608C124.513 73.6082 124.509 73.5309 124.591 73.4302C124.671 73.3333 124.846 73.2303 125.075 73.2388C125.302 73.2397 125.547 73.3478 125.807 73.3886C125.937 73.4072 126.076 73.4057 126.194 73.3481C126.314 73.292 126.416 73.1736 126.555 73.0694C126.624 73.0174 126.709 72.9731 126.799 72.9542C126.889 72.9362 126.976 72.9409 127.056 72.9527C127.216 72.9781 127.354 73.0248 127.482 73.0339C127.736 73.0513 127.964 72.925 128.158 72.8438C128.351 72.7558 128.526 72.7044 128.65 72.7032C128.775 72.7014 128.838 72.731 128.836 72.738Z" fill="#CC937F"/>
<path d="M128.883 73.6753C128.896 73.6839 128.745 73.8823 128.381 74.0137C128.201 74.0763 127.969 74.1162 127.714 74.0807C127.59 74.0642 127.467 74.0358 127.355 74.0506C127.241 74.0615 127.166 74.1345 127.082 74.2508C127.006 74.3654 126.873 74.4918 126.726 74.5242C126.582 74.5644 126.442 74.5579 126.316 74.5396C126.067 74.4974 125.863 74.4321 125.69 74.4442C125.519 74.4534 125.391 74.5281 125.326 74.596C125.26 74.6654 125.245 74.723 125.233 74.7194C125.225 74.7191 125.218 74.653 125.28 74.5585C125.341 74.4661 125.48 74.3618 125.68 74.3359C125.878 74.3081 126.104 74.3686 126.335 74.399C126.568 74.4271 126.82 74.3982 126.96 74.1578C127.002 74.102 127.048 74.0403 127.113 73.9895C127.178 73.9381 127.26 73.9083 127.336 73.9006C127.49 73.885 127.619 73.9225 127.735 73.9402C127.964 73.9797 128.178 73.9546 128.349 73.9095C128.694 73.8147 128.867 73.6537 128.883 73.6753Z" fill="#CC937F"/>
<path d="M115.648 75.6429C115.648 75.6535 115.532 75.658 115.322 75.6571C115.216 75.6586 115.088 75.6544 114.939 75.6391C114.79 75.6261 114.619 75.6151 114.434 75.5824C114.059 75.5345 113.621 75.4315 113.142 75.2959C112.665 75.1501 112.15 74.9602 111.626 74.7249C110.579 74.2483 109.694 73.6993 109.071 73.2812C108.759 73.0719 108.512 72.8956 108.345 72.7683C108.178 72.6416 108.088 72.5678 108.094 72.5589C108.1 72.5504 108.201 72.6077 108.379 72.719C108.584 72.848 108.835 73.0051 109.13 73.1897C109.765 73.583 110.653 74.113 111.689 74.5846C112.208 74.8173 112.715 75.0089 113.183 75.1604C113.654 75.3015 114.083 75.4144 114.451 75.4752C115.184 75.6075 115.649 75.6137 115.648 75.6429Z" fill="#263238"/>
<path d="M118.69 79.5655C118.688 79.5758 118.513 79.5398 118.196 79.4654C118.037 79.4311 117.845 79.3809 117.626 79.3095C117.405 79.2415 117.152 79.1689 116.882 79.0623C116.332 78.8721 115.701 78.5869 115.013 78.2441C114.332 77.888 113.603 77.4592 112.869 76.9622C111.404 75.96 110.199 74.8941 109.366 74.0876C108.95 73.6843 108.622 73.3482 108.403 73.1088C108.184 72.8705 108.066 72.7352 108.074 72.7279C108.081 72.7205 108.214 72.8418 108.446 73.0668C108.677 73.293 109.016 73.6167 109.441 74.0085C110.29 74.7925 111.5 75.8396 112.955 76.835C113.685 77.3287 114.406 77.7577 115.078 78.118C115.757 78.4649 116.379 78.7585 116.92 78.9601C117.186 79.0723 117.435 79.1518 117.651 79.2271C117.867 79.3059 118.056 79.3641 118.212 79.4072C118.522 79.4993 118.693 79.5551 118.69 79.5655Z" fill="#263238"/>
<path d="M135.17 67.6654C135.179 67.6848 134.826 67.862 134.247 68.1301C133.668 68.3982 132.864 68.7573 131.969 69.1391C131.074 69.5212 130.258 69.8528 129.661 70.079C129.362 70.1915 129.12 70.2804 128.95 70.3353C128.78 70.3911 128.685 70.4174 128.681 70.4074C128.673 70.3867 129.035 70.2302 129.62 69.978C130.245 69.7105 131.035 69.3718 131.909 68.9974C132.785 68.6283 133.577 68.2943 134.204 68.0303C134.793 67.7879 135.161 67.6459 135.17 67.6654Z" fill="#263238"/>
<path d="M129.246 55.2766C129.25 55.2733 129.286 55.3091 129.35 55.3796C129.425 55.4647 129.517 55.5683 129.627 55.6932C129.871 55.9625 130.228 56.3479 130.689 56.805C131.147 57.2656 131.71 57.7974 132.309 58.4187C132.904 59.0406 133.534 59.7619 134.047 60.6245C134.565 61.4852 134.848 62.4186 134.975 63.275C135.088 64.1331 135.122 64.9079 135.152 65.5584C135.179 66.2089 135.188 66.7354 135.19 67.0995C135.189 67.2666 135.188 67.4051 135.187 67.5188C135.184 67.6148 135.18 67.665 135.175 67.6652C135.169 67.6652 135.163 67.615 135.156 67.5197C135.149 67.4063 135.141 67.2684 135.13 67.1015C135.108 66.7147 135.079 66.1953 135.044 65.5643C135 64.9167 134.954 64.1422 134.835 63.2956C134.702 62.4552 134.422 61.5472 133.914 60.7024C133.411 59.8558 132.792 59.1404 132.206 58.5164C131.617 57.8934 131.061 57.353 130.612 56.8812C130.159 56.4134 129.812 56.0145 129.582 55.7322C129.48 55.5993 129.396 55.4895 129.326 55.3991C129.269 55.322 129.241 55.2798 129.246 55.2766Z" fill="#263238"/>
<path d="M140.431 72.0809C140.436 72.0903 140.279 72.1833 139.991 72.3434C139.678 72.5126 139.265 72.737 138.764 73.0087C137.724 73.5644 136.283 74.3227 134.688 75.1518C133.05 76.0028 131.568 76.7629 130.517 77.2924L130.457 77.3225L130.441 77.2593C130.305 76.7292 130.193 76.2931 130.108 75.9636C130.033 75.658 129.996 75.4888 130.007 75.4858C130.017 75.4831 130.072 75.647 130.164 75.9479C130.261 76.2742 130.389 76.7059 130.544 77.2309L130.468 77.1979C131.505 76.6424 132.98 75.8661 134.617 75.0154C136.213 74.1863 137.662 73.4433 138.714 72.9124C139.224 72.6585 139.645 72.4488 139.963 72.2905C140.26 72.1464 140.426 72.0714 140.431 72.0809Z" fill="#263238"/>
<path d="M124.871 77.7598C124.876 77.7604 124.873 77.8425 124.863 77.9981C124.85 78.1676 124.833 78.3937 124.812 78.6775C124.754 79.266 124.715 80.1218 124.66 81.1774C124.567 83.2905 124.54 86.2138 124.59 89.4415C124.637 92.6705 124.741 95.5923 124.825 97.7068C124.867 98.7524 124.902 99.6038 124.926 100.211C124.937 100.495 124.944 100.722 124.951 100.892C124.955 101.048 124.955 101.129 124.949 101.13C124.944 101.13 124.934 101.049 124.92 100.894C124.906 100.724 124.889 100.498 124.867 100.214C124.825 99.6235 124.771 98.7687 124.717 97.7116C124.605 95.5976 124.484 92.6749 124.436 89.4436C124.386 86.2138 124.431 83.2869 124.552 81.1721C124.62 80.1153 124.676 79.2598 124.752 78.6719C124.786 78.389 124.812 78.1637 124.833 77.9945C124.852 77.8401 124.865 77.7592 124.871 77.7598Z" fill="#263238"/>
<path d="M112.613 50.0278C112.613 50.0278 107.396 52.2528 105.785 55.782C104.174 59.3113 100.875 70.5126 100.798 72.5843C100.721 74.6558 104.557 81.1007 104.557 81.1007L110.618 77.2646L109.468 74.4257L111.309 62.2269L112.613 50.0278Z" fill="#DB7362"/>
<path d="M110.12 144.734C110.12 144.734 110.119 144.734 110.119 144.734C109.711 144.733 109.382 144.402 109.382 143.995C109.383 143.399 109.475 84.4391 109.449 83.4871C109.393 81.4538 108.154 80.5231 108.101 80.4844C107.775 80.2446 107.699 79.7846 107.936 79.4559C108.173 79.1267 108.627 79.0484 108.958 79.2823C109.035 79.3366 110.847 80.6477 110.924 83.4464C110.951 84.4202 110.862 141.565 110.859 143.997C110.858 144.404 110.528 144.734 110.12 144.734Z" fill="#263238"/>
<path d="M105.935 87.8706H105.934C105.526 87.87 105.196 87.539 105.197 87.1312C105.2 84.9408 105.203 81.6109 105.197 81.416C105.168 81.0094 105.474 80.668 105.881 80.6382C106.287 80.6122 106.642 80.9267 106.671 81.3333C106.673 81.3676 106.681 81.4718 106.673 87.1339C106.673 87.5408 106.342 87.8706 105.935 87.8706Z" fill="#263238"/>
<path d="M107.071 77.3832C107.071 77.3832 105.999 78.3216 105.641 78.6343C105.284 78.9471 104.837 81.7174 104.837 81.7174C104.837 81.7174 106.401 83.3929 107.071 83.4599C107.741 83.5269 108.278 83.0802 108.278 83.0802C108.278 83.0802 108.948 83.4599 109.35 83.1247C109.752 82.7896 108.792 80.6225 108.792 80.6225C108.792 80.6225 108.43 79.5725 109.449 79.6395L109.887 80.425L110.981 82.2982C110.981 82.2982 111.652 82.2088 111.763 81.8736C111.875 81.5385 111.473 80.425 111.473 80.425C111.473 80.425 111.919 79.7514 111.674 79.1036C111.428 78.4557 111.026 77.2716 109.842 77.0035C108.658 76.7354 107.071 77.3832 107.071 77.3832Z" fill="#F4C3AE"/>
<path d="M108.211 82.8101C108.192 82.8245 108.01 82.5883 107.679 82.2434C107.349 81.8962 106.861 81.458 106.249 81.0496C106.099 80.9394 105.952 80.8119 105.858 80.6447C105.763 80.4776 105.741 80.2836 105.767 80.1162C105.818 79.7763 106.002 79.525 106.152 79.3381C106.306 79.1503 106.435 79.0074 106.516 78.9017C106.599 78.7974 106.641 78.7357 106.651 78.741C106.677 78.7523 106.532 79.0257 106.238 79.404C106.101 79.5953 105.944 79.8368 105.907 80.1342C105.889 80.2807 105.91 80.4351 105.989 80.57C106.067 80.7059 106.196 80.8198 106.34 80.9256C106.951 81.3328 107.448 81.8014 107.759 82.1702C108.075 82.5396 108.226 82.7997 108.211 82.8101Z" fill="#CC937F"/>
<path d="M110.193 79.294C110.226 79.3244 110.051 79.5447 109.975 79.8689C109.893 80.1917 109.947 80.4678 109.904 80.4796C109.868 80.4979 109.734 80.2023 109.826 79.8326C109.914 79.462 110.169 79.2612 110.193 79.294Z" fill="#CC937F"/>
<path d="M102.211 71.5168C102.211 71.5062 102.36 71.503 102.631 71.5059C102.766 71.5095 102.932 71.5062 103.124 71.5198C103.32 71.5443 103.537 71.5715 103.773 71.601C104.014 71.635 104.27 71.7114 104.549 71.7732C104.688 71.8074 104.825 71.8659 104.969 71.9137C105.111 71.9686 105.265 72.0073 105.408 72.0832C106.002 72.3339 106.603 72.7231 107.172 73.197C107.743 73.6736 108.217 74.1998 108.623 74.6935C109.031 75.1861 109.375 75.6467 109.668 76.0291C109.959 76.4127 110.198 76.7204 110.367 76.9297C110.537 77.1391 110.627 77.2584 110.619 77.2655C110.611 77.2725 110.506 77.1668 110.322 76.9687C110.138 76.7708 109.885 76.472 109.582 76.0964C109.278 75.722 108.925 75.269 108.514 74.7848C108.105 74.299 107.633 73.7826 107.073 73.3145C106.514 72.8492 105.929 72.4653 105.35 72.2125C105.212 72.1361 105.061 72.0965 104.923 72.0404C104.782 71.9914 104.649 71.9311 104.513 71.8951C104.24 71.8296 103.99 71.7481 103.754 71.7079C103.522 71.6704 103.309 71.6361 103.115 71.6051C102.926 71.5839 102.762 71.5783 102.628 71.5656C102.36 71.5443 102.211 71.5275 102.211 71.5168Z" fill="#263238"/>
<path d="M110.193 61.0606C110.203 61.0626 110.179 61.2469 110.126 61.5788C110.074 61.9107 109.991 62.3896 109.883 62.9805C109.654 64.1835 109.346 65.8011 109.005 67.589C108.665 69.3891 108.393 71.0241 108.221 72.2117C108.139 72.7869 108.072 73.2617 108.022 73.619C107.976 73.9515 107.945 74.1349 107.935 74.134C107.924 74.1328 107.934 73.9474 107.963 73.6125C107.989 73.2774 108.04 72.794 108.113 72.1972C108.258 71.004 108.513 69.3625 108.854 67.5607C109.195 65.7597 109.535 64.136 109.776 62.9598C109.895 62.3908 109.993 61.9213 110.067 61.5679C110.138 61.2392 110.182 61.0585 110.193 61.0606Z" fill="#263238"/>
</g>
<g style="mix-blend-mode:multiply" opacity="0.5">
<rect x="22.4219" y="104.209" width="82.0043" height="70.951" rx="12.6197" fill="#222222"/>
</g>
<g style="mix-blend-mode:multiply" opacity="0.5">
<rect x="21.0684" y="102.991" width="82.0043" height="70.951" rx="12.6197" fill="#222222"/>
</g>
<rect x="21.2744" y="103.322" width="82.028" height="70.951" rx="12.6197" fill="white"/>
<rect x="31.5615" y="147.417" width="63.0984" height="6.30984" rx="3.15492" fill="#D4CFC8"/>
<rect x="31.5615" y="157.847" width="21.7887" height="6.26074" rx="3.13037" fill="#D4CFC8"/>
<rect x="56.3232" y="157.847" width="30.7605" height="6.26074" rx="3.13037" fill="#D4CFC8"/>
<path d="M44.1696 136.76C40.9606 134.921 38.2576 132.275 36.3152 129.07C34.3727 125.865 33.2547 122.207 33.0664 118.441C33.0488 118.104 33.0352 117.845 33.0411 117.596L33.0413 117.285L33.3027 117.123C36.3227 115.27 39.7376 114.199 43.254 114.003C46.7704 113.807 50.2829 114.491 53.4896 115.997L53.7737 116.133L53.7905 116.453C53.8223 116.789 53.8424 117.083 53.8565 117.352C54.0628 121.116 53.3336 124.87 51.7377 128.26C50.1418 131.65 47.7316 134.565 44.7338 136.731L44.4556 136.932L44.1696 136.76Z" fill="#FDE0AF"/>
<path d="M40.7755 114.439C46.2621 113.511 50.1601 115 53.2632 116.42C53.2782 116.706 53.3097 116.991 53.3247 117.276C53.514 120.848 52.9911 125.46 51.4307 128.679C49.8703 131.897 47.515 134.452 44.5935 136.516C41.4711 134.77 38.2472 131.927 36.358 128.889C34.4688 125.851 33.7844 121.883 33.5992 118.31C33.5855 118.048 33.5716 117.784 33.5767 117.518C36.5435 115.735 37.174 115.047 40.7755 114.439ZM43.3059 113.46C39.6767 113.653 36.15 114.732 33.0339 116.602L32.5107 116.916L32.5094 117.525C32.5224 117.773 32.5173 118.036 32.5351 118.375C32.7226 122.131 33.863 125.778 35.8487 128.971C37.8344 132.165 40.6003 134.8 43.8858 136.63L44.4808 136.963L45.0377 136.57C48.1126 134.406 50.5865 131.495 52.2266 128.112C53.8668 124.728 54.6193 120.983 54.4134 117.229C54.3993 116.96 54.384 116.667 54.3475 116.333L54.2913 115.711L53.7236 115.449C50.461 113.961 46.8875 113.282 43.3064 113.47L43.3059 113.46Z" fill="#E9AC6D"/>
<path d="M48.5466 121.532L45.381 121.698L45.2068 118.375L45.162 117.52L44.3075 117.565L43.1696 117.624L42.3151 117.669L42.3599 118.524L42.5341 121.848L39.3684 122.013L38.5139 122.058L38.5587 122.913L38.6146 123.98L38.6594 124.834L39.5139 124.79L42.6795 124.624L42.8557 127.985L42.9005 128.84L43.755 128.795L44.8929 128.735L45.7474 128.691L45.7026 127.836L45.5265 124.474L48.6921 124.309L49.5466 124.264L49.5018 123.409L49.4459 122.342L49.4011 121.488L48.5466 121.532Z" fill="#E9AC6D"/>
<g style="mix-blend-mode:multiply" opacity="0.5">
<rect x="7.2998" y="38.8433" width="64.4273" height="54.7954" rx="9.33893" fill="#222222"/>
</g>
<g style="mix-blend-mode:multiply" opacity="0.5">
<rect x="6.53711" y="37.5386" width="63.9627" height="54.886" rx="10.5063" fill="#222222"/>
</g>
<rect x="6.9502" y="37.7109" width="64.0599" height="55.4094" rx="9.85537" fill="white"/>
<rect x="14.9824" y="72.147" width="49.2769" height="4.92769" rx="2.46384" fill="#D4CFC8"/>
<rect x="14.9824" y="80.291" width="17.0159" height="4.88934" rx="2.44467" fill="#D4CFC8"/>
<rect x="34.3213" y="80.291" width="24.0225" height="4.88934" rx="2.44467" fill="white"/>
<path d="M31.9294 60.2978C30.8143 61.6582 28.1897 64.6531 25.9021 65.2821L25.7986 65.2529C23.5144 64.6279 20.8641 61.7692 19.7246 60.474C17.6176 58.0723 14.6125 52.1962 18.5933 49.9951C21.3611 48.4642 24.6501 50.6662 25.7218 53.4816C26.7112 50.6378 29.932 48.3411 32.7538 49.7905C36.789 51.878 33.9642 57.8394 31.9294 60.2978Z" fill="#FF725E"/>
<g style="mix-blend-mode:lighten" opacity="0.65">
<g style="mix-blend-mode:lighten" opacity="0.65">
<path d="M18.6943 54.3149C18.7117 54.0721 18.7115 53.8284 18.6938 53.5857C18.7051 52.9829 18.773 52.3918 19.2159 51.9409C19.4263 51.7354 19.6681 51.5643 19.9322 51.4339C20.1079 51.3426 20.4905 51.1582 20.2872 50.9091C20.084 50.6601 19.6291 50.7492 19.3519 50.8365C19.0067 50.9517 18.6923 51.1431 18.4321 51.3965C18.1719 51.6499 17.9727 51.9587 17.8493 52.2997C17.6291 52.9277 17.7214 53.6492 17.9132 54.2735C17.9303 54.3593 17.9683 54.4397 18.0239 54.5075C18.0794 54.5754 18.1508 54.6286 18.2318 54.6626C18.3321 54.6805 18.4354 54.6586 18.5196 54.6016C18.6039 54.5446 18.6624 54.4571 18.6826 54.3577C18.6876 54.3437 18.6915 54.3294 18.6943 54.3149V54.3149Z" fill="white"/>
</g>
<g style="mix-blend-mode:lighten" opacity="0.65">
<path d="M29.658 60.6612C29.4617 60.8807 29.275 61.1093 29.0991 61.3454C28.6303 61.9055 28.167 62.4921 27.5634 62.7068C27.2752 62.8406 27.2416 62.8738 27.0654 62.9665C26.7904 63.1111 26.4071 63.1675 26.3344 63.4966C26.2618 63.8257 26.5937 63.7814 26.9085 63.7104C27.3657 63.6067 27.2269 63.6372 27.5727 63.5218C27.9185 63.4064 28.2713 63.2104 28.6046 62.9485C29.2144 62.463 29.7139 61.7429 30.081 61.0671C30.1369 60.9786 30.1764 60.8853 30.1961 60.7956C30.2157 60.7059 30.215 60.6223 30.194 60.5524C30.1493 60.4885 30.0723 60.4605 29.9796 60.4743C29.8868 60.4882 29.7857 60.5428 29.6976 60.6265C29.684 60.6373 29.6708 60.6489 29.658 60.6612Z" fill="white"/>
</g>
</g>
<path d="M9.20922 35.9411L10.0076 37.9743C10.0871 38.1769 10.248 38.3369 10.451 38.4155L12.3897 39.1654C12.7449 39.3028 12.7461 39.8049 12.3916 39.9441L10.4496 40.7067C10.247 40.7862 10.087 40.947 10.0085 41.1501L9.22317 43.1802C9.08912 43.5267 8.60334 43.5391 8.45185 43.1998L7.57761 41.2418C7.49893 41.0655 7.35753 40.9248 7.1809 40.847L5.14593 39.9508C4.81426 39.8047 4.81307 39.3345 5.144 39.1867L7.1822 38.2767C7.35844 38.198 7.49912 38.0566 7.57692 37.88L8.43781 35.9254C8.58758 35.5853 9.07341 35.5952 9.20922 35.9411Z" fill="#FFC35A" stroke="#F7F7F7" stroke-width="0.359929"/>
<defs>
<clipPath id="clip0_4927_143383">
<rect width="71.4317" height="115.59" fill="white" transform="translate(100.795 14.0391)"/>
</clipPath>
</defs>
</svg>
